<?xml version="1.0" encoding="UTF-8"?>
<svg version="1.1" xmlns="http://www.w3.org/2000/svg" width="48" height="48">
<path d="M0 0 C3.89874069 2.3231218 7.19793909 5.08165404 9.453125 9.05078125 C10.0992277 12.04541597 10.48480261 14.98438905 10.453125 18.05078125 C8.61035991 19.89354634 6.02348741 19.17952536 3.57177734 19.18972778 C2.74887207 19.18770355 1.9259668 19.18567932 1.078125 19.18359375 C0.23846191 19.18455048 -0.60120117 19.1855072 -1.46630859 19.18649292 C-3.24511795 19.18717473 -5.02392977 19.18532042 -6.80273438 19.18115234 C-9.53521276 19.17580408 -12.26752676 19.1810973 -15 19.1875 C-16.7239587 19.18683922 -18.44791729 19.18555806 -20.171875 19.18359375 C-20.99478027 19.18561798 -21.81768555 19.18764221 -22.66552734 19.18972778 C-28.43192446 19.16573179 -28.43192446 19.16573179 -29.546875 18.05078125 C-29.84576272 11.99505622 -28.41902123 8.03209807 -24.41015625 3.55859375 C-17.56893774 -1.97748664 -8.24786849 -3.07397553 0 0 Z M-23.859375 8.48828125 C-25.59309235 11.12096315 -26.28641835 12.92530145 -26.546875 16.05078125 C-25.42259865 17.4018327 -25.42259865 17.4018327 -22.49584961 17.16430664 C-21.14696229 17.16414759 -19.79806886 17.15845737 -18.44921875 17.1484375 C-17.74036026 17.14702255 -17.03150177 17.1456076 -16.30116272 17.14414978 C-14.02885788 17.13853568 -11.75665025 17.12598088 -9.484375 17.11328125 C-7.94726704 17.10826806 -6.41015755 17.10370484 -4.87304688 17.09960938 C-1.09761858 17.08856167 2.67773671 17.07128766 6.453125 17.05078125 C7.11438553 15.19970018 7.11438553 15.19970018 7.453125 13.05078125 C4.79024545 8.13469593 1.48082329 4.56463039 -3.546875 2.05078125 C-12.39728836 1.24258482 -17.57758844 1.86693866 -23.859375 8.48828125 Z " fill="#FAFAFA" transform="translate(33.546875,24.94921875)"/>
<path d="M0 0 C3.65050264 0.88318612 4.94055216 2.348519 6.9375 5.46875 C7.9526866 10.54468299 7.74739899 14.20328283 4.9375 18.59375 C1.62360247 20.66493595 -0.28025808 21.22876833 -4.125 20.9375 C-7.77550264 20.05431388 -9.06555216 18.588981 -11.0625 15.46875 C-12.0776866 10.39281701 -11.87239899 6.73421717 -9.0625 2.34375 C-5.74860247 0.27256405 -3.84474192 -0.29126833 0 0 Z M-6.9375 4.46875 C-8.74773932 7.68695324 -8.60217465 10.87091898 -8.0625 14.46875 C-7.10132095 16.59745693 -7.10132095 16.59745693 -5.0625 17.46875 C-1.97434125 17.85476984 0.03934376 17.94776666 2.8125 16.46875 C4.62273932 13.25054676 4.47717465 10.06658102 3.9375 6.46875 C2.97632095 4.34004307 2.97632095 4.34004307 0.9375 3.46875 C-2.15065875 3.08273016 -4.16434376 2.98973334 -6.9375 4.46875 Z " fill="#FAFAFA" transform="translate(26.0625,1.53125)"/>
</svg>
